<mxfile host="app.diagrams.net" modified="2023-05-03T07:59:49.826Z" agent="Mozilla/5.0 (Windows NT 10.0; Win64; x64) AppleWebKit/537.36 (KHTML, like Gecko) Chrome/112.0.0.0 Safari/537.36" etag="jP5eeD8mgb7UiZSRO9mI" version="21.2.4" type="github" pages="3">
  <diagram name="註冊與客戶端行為" id="cU0nXrHF4XMiRjEjTRhM">
    <mxGraphModel dx="1260" dy="1864" grid="1" gridSize="10" guides="1" tooltips="1" connect="1" arrows="1" fold="1" page="1" pageScale="1" pageWidth="827" pageHeight="1169" math="0" shadow="0">
      <root>
        <mxCell id="0" />
        <mxCell id="1" parent="0" />
        <mxCell id="rElacp6QVpxp85mC21H8-3" style="edgeStyle=orthogonalEdgeStyle;rounded=0;orthogonalLoop=1;jettySize=auto;html=1;entryX=0;entryY=0.5;entryDx=0;entryDy=0;" parent="1" source="rElacp6QVpxp85mC21H8-1" target="rElacp6QVpxp85mC21H8-2" edge="1">
          <mxGeometry relative="1" as="geometry" />
        </mxCell>
        <mxCell id="rElacp6QVpxp85mC21H8-5" style="edgeStyle=orthogonalEdgeStyle;rounded=0;orthogonalLoop=1;jettySize=auto;html=1;entryX=0;entryY=0.5;entryDx=0;entryDy=0;" parent="1" source="rElacp6QVpxp85mC21H8-1" target="rElacp6QVpxp85mC21H8-4" edge="1">
          <mxGeometry relative="1" as="geometry" />
        </mxCell>
        <mxCell id="rElacp6QVpxp85mC21H8-1" value="註冊與登入方式&lt;br&gt;(顧客端/餐廳端/&lt;br&gt;外送員端?/管理員端)" style="rounded=0;whiteSpace=wrap;html=1;" parent="1" vertex="1">
          <mxGeometry x="70" y="190" width="100" height="80" as="geometry" />
        </mxCell>
        <mxCell id="rElacp6QVpxp85mC21H8-8" style="edgeStyle=orthogonalEdgeStyle;rounded=0;orthogonalLoop=1;jettySize=auto;html=1;entryX=0;entryY=0.5;entryDx=0;entryDy=0;" parent="1" source="rElacp6QVpxp85mC21H8-2" target="rElacp6QVpxp85mC21H8-6" edge="1">
          <mxGeometry relative="1" as="geometry" />
        </mxCell>
        <mxCell id="rElacp6QVpxp85mC21H8-9" style="edgeStyle=orthogonalEdgeStyle;rounded=0;orthogonalLoop=1;jettySize=auto;html=1;entryX=0;entryY=0.5;entryDx=0;entryDy=0;" parent="1" source="rElacp6QVpxp85mC21H8-2" target="rElacp6QVpxp85mC21H8-7" edge="1">
          <mxGeometry relative="1" as="geometry" />
        </mxCell>
        <mxCell id="9ulV7JwIjiXNR_ygRMo--11" style="edgeStyle=orthogonalEdgeStyle;rounded=0;orthogonalLoop=1;jettySize=auto;html=1;entryX=0;entryY=0.5;entryDx=0;entryDy=0;" parent="1" source="rElacp6QVpxp85mC21H8-2" target="9ulV7JwIjiXNR_ygRMo--8" edge="1">
          <mxGeometry relative="1" as="geometry" />
        </mxCell>
        <mxCell id="rElacp6QVpxp85mC21H8-2" value="註冊" style="rounded=0;whiteSpace=wrap;html=1;" parent="1" vertex="1">
          <mxGeometry x="240" y="-150" width="100" height="40" as="geometry" />
        </mxCell>
        <mxCell id="rElacp6QVpxp85mC21H8-23" style="edgeStyle=orthogonalEdgeStyle;rounded=0;orthogonalLoop=1;jettySize=auto;html=1;entryX=0;entryY=0.5;entryDx=0;entryDy=0;" parent="1" source="rElacp6QVpxp85mC21H8-4" target="rElacp6QVpxp85mC21H8-20" edge="1">
          <mxGeometry relative="1" as="geometry" />
        </mxCell>
        <mxCell id="rElacp6QVpxp85mC21H8-24" style="edgeStyle=orthogonalEdgeStyle;rounded=0;orthogonalLoop=1;jettySize=auto;html=1;entryX=0;entryY=0.5;entryDx=0;entryDy=0;" parent="1" source="rElacp6QVpxp85mC21H8-4" target="rElacp6QVpxp85mC21H8-21" edge="1">
          <mxGeometry relative="1" as="geometry" />
        </mxCell>
        <mxCell id="gfIQbqnNzbjvfwokQ3qo-17" style="edgeStyle=orthogonalEdgeStyle;rounded=0;orthogonalLoop=1;jettySize=auto;html=1;entryX=0;entryY=0.5;entryDx=0;entryDy=0;" parent="1" source="rElacp6QVpxp85mC21H8-4" target="gfIQbqnNzbjvfwokQ3qo-4" edge="1">
          <mxGeometry relative="1" as="geometry" />
        </mxCell>
        <mxCell id="rElacp6QVpxp85mC21H8-4" value="登入" style="rounded=0;whiteSpace=wrap;html=1;" parent="1" vertex="1">
          <mxGeometry x="240" y="60" width="100" height="40" as="geometry" />
        </mxCell>
        <mxCell id="rElacp6QVpxp85mC21H8-15" style="edgeStyle=orthogonalEdgeStyle;rounded=0;orthogonalLoop=1;jettySize=auto;html=1;" parent="1" source="rElacp6QVpxp85mC21H8-6" edge="1">
          <mxGeometry relative="1" as="geometry">
            <mxPoint x="840" y="-190" as="targetPoint" />
          </mxGeometry>
        </mxCell>
        <mxCell id="rElacp6QVpxp85mC21H8-6" value="註冊成為顧客" style="rounded=0;whiteSpace=wrap;html=1;" parent="1" vertex="1">
          <mxGeometry x="380" y="-210" width="100" height="40" as="geometry" />
        </mxCell>
        <mxCell id="rElacp6QVpxp85mC21H8-14" style="edgeStyle=orthogonalEdgeStyle;rounded=0;orthogonalLoop=1;jettySize=auto;html=1;" parent="1" source="rElacp6QVpxp85mC21H8-7" edge="1">
          <mxGeometry relative="1" as="geometry">
            <mxPoint x="840" y="-80" as="targetPoint" />
          </mxGeometry>
        </mxCell>
        <mxCell id="rElacp6QVpxp85mC21H8-7" value="註冊成為賣家" style="rounded=0;whiteSpace=wrap;html=1;" parent="1" vertex="1">
          <mxGeometry x="380" y="-100" width="100" height="40" as="geometry" />
        </mxCell>
        <mxCell id="rElacp6QVpxp85mC21H8-11" value="填寫商家資訊&lt;br&gt;包括(帳號、密碼、公司名稱、公司地址、統編、公司電話、Email)" style="text;html=1;align=center;verticalAlign=middle;resizable=0;points=[];autosize=1;strokeColor=none;fillColor=none;" parent="1" vertex="1">
          <mxGeometry x="480" y="-130" width="370" height="40" as="geometry" />
        </mxCell>
        <mxCell id="rElacp6QVpxp85mC21H8-16" value="填寫顧客資訊&lt;br&gt;包括(帳號、密碼、用戶名稱、用戶地址、用戶電話、Email)" style="text;html=1;align=center;verticalAlign=middle;resizable=0;points=[];autosize=1;strokeColor=none;fillColor=none;" parent="1" vertex="1">
          <mxGeometry x="495" y="-230" width="340" height="40" as="geometry" />
        </mxCell>
        <mxCell id="rElacp6QVpxp85mC21H8-18" value="顧客註冊完成&lt;br style=&quot;border-color: var(--border-color);&quot;&gt;(顯示顧客儀表板)" style="rounded=0;whiteSpace=wrap;html=1;" parent="1" vertex="1">
          <mxGeometry x="840" y="-210" width="100" height="40" as="geometry" />
        </mxCell>
        <mxCell id="rElacp6QVpxp85mC21H8-19" value="賣家註冊完成&lt;br&gt;(顯示商家儀表板)" style="rounded=0;whiteSpace=wrap;html=1;" parent="1" vertex="1">
          <mxGeometry x="840" y="-100" width="100" height="40" as="geometry" />
        </mxCell>
        <mxCell id="rElacp6QVpxp85mC21H8-32" style="edgeStyle=orthogonalEdgeStyle;rounded=0;orthogonalLoop=1;jettySize=auto;html=1;entryX=0;entryY=0.25;entryDx=0;entryDy=0;" parent="1" source="rElacp6QVpxp85mC21H8-20" target="rElacp6QVpxp85mC21H8-29" edge="1">
          <mxGeometry relative="1" as="geometry">
            <mxPoint x="830" as="targetPoint" />
            <Array as="points">
              <mxPoint x="510" y="20" />
              <mxPoint x="510" y="-20" />
              <mxPoint x="870" y="-20" />
              <mxPoint x="870" y="20" />
            </Array>
          </mxGeometry>
        </mxCell>
        <mxCell id="rElacp6QVpxp85mC21H8-44" style="edgeStyle=orthogonalEdgeStyle;rounded=0;orthogonalLoop=1;jettySize=auto;html=1;entryX=0;entryY=0.5;entryDx=0;entryDy=0;" parent="1" source="rElacp6QVpxp85mC21H8-20" target="rElacp6QVpxp85mC21H8-39" edge="1">
          <mxGeometry relative="1" as="geometry">
            <Array as="points">
              <mxPoint x="510" y="20" />
              <mxPoint x="510" y="40" />
            </Array>
          </mxGeometry>
        </mxCell>
        <mxCell id="rElacp6QVpxp85mC21H8-51" style="edgeStyle=orthogonalEdgeStyle;rounded=0;orthogonalLoop=1;jettySize=auto;html=1;entryX=0;entryY=0.5;entryDx=0;entryDy=0;" parent="1" source="rElacp6QVpxp85mC21H8-20" target="rElacp6QVpxp85mC21H8-50" edge="1">
          <mxGeometry relative="1" as="geometry">
            <Array as="points">
              <mxPoint x="510" y="20" />
              <mxPoint x="510" y="90" />
            </Array>
          </mxGeometry>
        </mxCell>
        <mxCell id="rElacp6QVpxp85mC21H8-20" value="顧客登入頁面&lt;br&gt;(忘記密碼、第三方登入?)" style="rounded=0;whiteSpace=wrap;html=1;" parent="1" vertex="1">
          <mxGeometry x="380" y="-10" width="100" height="60" as="geometry" />
        </mxCell>
        <mxCell id="rElacp6QVpxp85mC21H8-21" value="賣家登入頁面&lt;br&gt;(忘記密碼、第三方登入?)" style="rounded=0;whiteSpace=wrap;html=1;" parent="1" vertex="1">
          <mxGeometry x="380" y="160" width="100" height="60" as="geometry" />
        </mxCell>
        <mxCell id="rElacp6QVpxp85mC21H8-29" value="顧客註冊完成&lt;br style=&quot;border-color: var(--border-color);&quot;&gt;(顯示顧客儀表板)" style="rounded=0;whiteSpace=wrap;html=1;" parent="1" vertex="1">
          <mxGeometry x="950" y="10" width="100" height="40" as="geometry" />
        </mxCell>
        <mxCell id="rElacp6QVpxp85mC21H8-33" value="輸入帳號、密碼" style="text;html=1;align=center;verticalAlign=middle;resizable=0;points=[];autosize=1;strokeColor=none;fillColor=none;" parent="1" vertex="1">
          <mxGeometry x="610" y="-50" width="110" height="30" as="geometry" />
        </mxCell>
        <mxCell id="rElacp6QVpxp85mC21H8-45" style="edgeStyle=orthogonalEdgeStyle;rounded=0;orthogonalLoop=1;jettySize=auto;html=1;entryX=0;entryY=0.5;entryDx=0;entryDy=0;" parent="1" source="rElacp6QVpxp85mC21H8-39" target="rElacp6QVpxp85mC21H8-43" edge="1">
          <mxGeometry relative="1" as="geometry" />
        </mxCell>
        <mxCell id="rElacp6QVpxp85mC21H8-39" value="輸入顧客Email" style="rounded=0;whiteSpace=wrap;html=1;" parent="1" vertex="1">
          <mxGeometry x="530" y="20" width="90" height="40" as="geometry" />
        </mxCell>
        <mxCell id="rElacp6QVpxp85mC21H8-47" style="edgeStyle=orthogonalEdgeStyle;rounded=0;orthogonalLoop=1;jettySize=auto;html=1;entryX=0;entryY=0.25;entryDx=0;entryDy=0;" parent="1" source="rElacp6QVpxp85mC21H8-43" target="rElacp6QVpxp85mC21H8-29" edge="1">
          <mxGeometry relative="1" as="geometry">
            <Array as="points">
              <mxPoint x="870" y="40" />
              <mxPoint x="870" y="20" />
            </Array>
          </mxGeometry>
        </mxCell>
        <mxCell id="rElacp6QVpxp85mC21H8-43" value="修改新密碼" style="rounded=0;whiteSpace=wrap;html=1;" parent="1" vertex="1">
          <mxGeometry x="740" y="20" width="100" height="40" as="geometry" />
        </mxCell>
        <mxCell id="rElacp6QVpxp85mC21H8-48" value="發送Email驗證信，&lt;br&gt;至Email確認後跳&lt;br&gt;至修改密碼頁面" style="text;html=1;align=center;verticalAlign=middle;resizable=0;points=[];autosize=1;strokeColor=none;fillColor=none;" parent="1" vertex="1">
          <mxGeometry x="610" y="-20" width="130" height="60" as="geometry" />
        </mxCell>
        <mxCell id="rElacp6QVpxp85mC21H8-52" style="edgeStyle=orthogonalEdgeStyle;rounded=0;orthogonalLoop=1;jettySize=auto;html=1;entryX=0;entryY=0.25;entryDx=0;entryDy=0;" parent="1" source="rElacp6QVpxp85mC21H8-50" target="rElacp6QVpxp85mC21H8-29" edge="1">
          <mxGeometry relative="1" as="geometry">
            <Array as="points">
              <mxPoint x="870" y="90" />
              <mxPoint x="870" y="20" />
            </Array>
          </mxGeometry>
        </mxCell>
        <mxCell id="rElacp6QVpxp85mC21H8-50" value="第三方登入???&lt;br&gt;(Facebook?)" style="rounded=0;whiteSpace=wrap;html=1;" parent="1" vertex="1">
          <mxGeometry x="630" y="70" width="100" height="40" as="geometry" />
        </mxCell>
        <mxCell id="rElacp6QVpxp85mC21H8-53" value="正常登入" style="text;html=1;align=center;verticalAlign=middle;resizable=0;points=[];autosize=1;strokeColor=none;fillColor=none;" parent="1" vertex="1">
          <mxGeometry x="500" y="-40" width="70" height="30" as="geometry" />
        </mxCell>
        <mxCell id="rElacp6QVpxp85mC21H8-54" value="忘記密碼登入" style="text;html=1;align=center;verticalAlign=middle;resizable=0;points=[];autosize=1;strokeColor=none;fillColor=none;" parent="1" vertex="1">
          <mxGeometry x="495" width="100" height="30" as="geometry" />
        </mxCell>
        <mxCell id="rElacp6QVpxp85mC21H8-55" value="第三方登入" style="text;html=1;align=center;verticalAlign=middle;resizable=0;points=[];autosize=1;strokeColor=none;fillColor=none;" parent="1" vertex="1">
          <mxGeometry x="500" y="70" width="80" height="30" as="geometry" />
        </mxCell>
        <mxCell id="rElacp6QVpxp85mC21H8-56" style="edgeStyle=orthogonalEdgeStyle;rounded=0;orthogonalLoop=1;jettySize=auto;html=1;entryX=0;entryY=0.25;entryDx=0;entryDy=0;" parent="1" target="rElacp6QVpxp85mC21H8-59" edge="1">
          <mxGeometry relative="1" as="geometry">
            <mxPoint x="830" y="170" as="targetPoint" />
            <mxPoint x="480" y="190" as="sourcePoint" />
            <Array as="points">
              <mxPoint x="510" y="190" />
              <mxPoint x="510" y="150" />
              <mxPoint x="870" y="150" />
              <mxPoint x="870" y="190" />
            </Array>
          </mxGeometry>
        </mxCell>
        <mxCell id="rElacp6QVpxp85mC21H8-57" style="edgeStyle=orthogonalEdgeStyle;rounded=0;orthogonalLoop=1;jettySize=auto;html=1;entryX=0;entryY=0.5;entryDx=0;entryDy=0;" parent="1" target="rElacp6QVpxp85mC21H8-62" edge="1">
          <mxGeometry relative="1" as="geometry">
            <mxPoint x="480" y="190" as="sourcePoint" />
            <Array as="points">
              <mxPoint x="510" y="190" />
              <mxPoint x="510" y="210" />
            </Array>
          </mxGeometry>
        </mxCell>
        <mxCell id="rElacp6QVpxp85mC21H8-59" value="賣家註冊完成&lt;br style=&quot;border-color: var(--border-color);&quot;&gt;(顯示商家儀表板)" style="rounded=0;whiteSpace=wrap;html=1;" parent="1" vertex="1">
          <mxGeometry x="950" y="180" width="100" height="40" as="geometry" />
        </mxCell>
        <mxCell id="rElacp6QVpxp85mC21H8-60" value="輸入帳號、密碼" style="text;html=1;align=center;verticalAlign=middle;resizable=0;points=[];autosize=1;strokeColor=none;fillColor=none;" parent="1" vertex="1">
          <mxGeometry x="610" y="120" width="110" height="30" as="geometry" />
        </mxCell>
        <mxCell id="rElacp6QVpxp85mC21H8-61" style="edgeStyle=orthogonalEdgeStyle;rounded=0;orthogonalLoop=1;jettySize=auto;html=1;entryX=0;entryY=0.5;entryDx=0;entryDy=0;" parent="1" source="rElacp6QVpxp85mC21H8-62" target="rElacp6QVpxp85mC21H8-64" edge="1">
          <mxGeometry relative="1" as="geometry" />
        </mxCell>
        <mxCell id="rElacp6QVpxp85mC21H8-62" value="輸入賣家Email" style="rounded=0;whiteSpace=wrap;html=1;" parent="1" vertex="1">
          <mxGeometry x="530" y="190" width="90" height="40" as="geometry" />
        </mxCell>
        <mxCell id="rElacp6QVpxp85mC21H8-63" style="edgeStyle=orthogonalEdgeStyle;rounded=0;orthogonalLoop=1;jettySize=auto;html=1;entryX=0;entryY=0.25;entryDx=0;entryDy=0;" parent="1" source="rElacp6QVpxp85mC21H8-64" target="rElacp6QVpxp85mC21H8-59" edge="1">
          <mxGeometry relative="1" as="geometry">
            <Array as="points">
              <mxPoint x="870" y="210" />
              <mxPoint x="870" y="190" />
            </Array>
          </mxGeometry>
        </mxCell>
        <mxCell id="rElacp6QVpxp85mC21H8-64" value="修改新密碼" style="rounded=0;whiteSpace=wrap;html=1;" parent="1" vertex="1">
          <mxGeometry x="740" y="190" width="100" height="40" as="geometry" />
        </mxCell>
        <mxCell id="rElacp6QVpxp85mC21H8-65" value="發送Email驗證信，&lt;br&gt;至Email確認後跳&lt;br&gt;至修改密碼頁面" style="text;html=1;align=center;verticalAlign=middle;resizable=0;points=[];autosize=1;strokeColor=none;fillColor=none;" parent="1" vertex="1">
          <mxGeometry x="610" y="150" width="130" height="60" as="geometry" />
        </mxCell>
        <mxCell id="rElacp6QVpxp85mC21H8-68" value="正常登入" style="text;html=1;align=center;verticalAlign=middle;resizable=0;points=[];autosize=1;strokeColor=none;fillColor=none;" parent="1" vertex="1">
          <mxGeometry x="500" y="130" width="70" height="30" as="geometry" />
        </mxCell>
        <mxCell id="rElacp6QVpxp85mC21H8-69" value="忘記密碼登入" style="text;html=1;align=center;verticalAlign=middle;resizable=0;points=[];autosize=1;strokeColor=none;fillColor=none;" parent="1" vertex="1">
          <mxGeometry x="495" y="170" width="100" height="30" as="geometry" />
        </mxCell>
        <mxCell id="rElacp6QVpxp85mC21H8-76" value="&lt;font style=&quot;font-size: 18px;&quot;&gt;蔡立一版本&lt;/font&gt;" style="text;html=1;align=center;verticalAlign=middle;resizable=0;points=[];autosize=1;strokeColor=none;fillColor=none;" parent="1" vertex="1">
          <mxGeometry x="20" y="-350" width="110" height="40" as="geometry" />
        </mxCell>
        <mxCell id="rElacp6QVpxp85mC21H8-80" style="edgeStyle=orthogonalEdgeStyle;rounded=0;orthogonalLoop=1;jettySize=auto;html=1;entryX=0;entryY=0.5;entryDx=0;entryDy=0;" parent="1" source="rElacp6QVpxp85mC21H8-78" target="rElacp6QVpxp85mC21H8-79" edge="1">
          <mxGeometry relative="1" as="geometry" />
        </mxCell>
        <mxCell id="rElacp6QVpxp85mC21H8-99" style="edgeStyle=orthogonalEdgeStyle;rounded=0;orthogonalLoop=1;jettySize=auto;html=1;entryX=0.5;entryY=1;entryDx=0;entryDy=0;" parent="1" source="rElacp6QVpxp85mC21H8-78" target="rElacp6QVpxp85mC21H8-1" edge="1">
          <mxGeometry relative="1" as="geometry" />
        </mxCell>
        <mxCell id="FL0FG-AgyobJ4NUiEC8_-10" style="edgeStyle=orthogonalEdgeStyle;rounded=0;orthogonalLoop=1;jettySize=auto;html=1;entryX=0;entryY=0.5;entryDx=0;entryDy=0;" parent="1" source="rElacp6QVpxp85mC21H8-78" target="FL0FG-AgyobJ4NUiEC8_-11" edge="1">
          <mxGeometry relative="1" as="geometry">
            <mxPoint x="120" y="1280" as="targetPoint" />
            <Array as="points">
              <mxPoint x="120" y="960" />
            </Array>
          </mxGeometry>
        </mxCell>
        <mxCell id="rElacp6QVpxp85mC21H8-78" value="顧客行為" style="ellipse;whiteSpace=wrap;html=1;" parent="1" vertex="1">
          <mxGeometry x="80" y="580" width="80" height="50" as="geometry" />
        </mxCell>
        <mxCell id="rElacp6QVpxp85mC21H8-88" style="edgeStyle=orthogonalEdgeStyle;rounded=0;orthogonalLoop=1;jettySize=auto;html=1;entryX=0;entryY=0.5;entryDx=0;entryDy=0;" parent="1" source="rElacp6QVpxp85mC21H8-79" target="rElacp6QVpxp85mC21H8-82" edge="1">
          <mxGeometry relative="1" as="geometry" />
        </mxCell>
        <mxCell id="rElacp6QVpxp85mC21H8-89" style="edgeStyle=orthogonalEdgeStyle;rounded=0;orthogonalLoop=1;jettySize=auto;html=1;entryX=0;entryY=0.5;entryDx=0;entryDy=0;" parent="1" source="rElacp6QVpxp85mC21H8-79" target="rElacp6QVpxp85mC21H8-84" edge="1">
          <mxGeometry relative="1" as="geometry" />
        </mxCell>
        <mxCell id="rElacp6QVpxp85mC21H8-90" style="edgeStyle=orthogonalEdgeStyle;rounded=0;orthogonalLoop=1;jettySize=auto;html=1;entryX=0;entryY=0.75;entryDx=0;entryDy=0;" parent="1" source="rElacp6QVpxp85mC21H8-79" target="rElacp6QVpxp85mC21H8-85" edge="1">
          <mxGeometry relative="1" as="geometry" />
        </mxCell>
        <mxCell id="rElacp6QVpxp85mC21H8-91" style="edgeStyle=orthogonalEdgeStyle;rounded=0;orthogonalLoop=1;jettySize=auto;html=1;entryX=0;entryY=0.5;entryDx=0;entryDy=0;" parent="1" source="rElacp6QVpxp85mC21H8-79" target="rElacp6QVpxp85mC21H8-86" edge="1">
          <mxGeometry relative="1" as="geometry" />
        </mxCell>
        <mxCell id="rElacp6QVpxp85mC21H8-92" style="edgeStyle=orthogonalEdgeStyle;rounded=0;orthogonalLoop=1;jettySize=auto;html=1;entryX=0;entryY=0.5;entryDx=0;entryDy=0;" parent="1" source="rElacp6QVpxp85mC21H8-79" target="rElacp6QVpxp85mC21H8-87" edge="1">
          <mxGeometry relative="1" as="geometry" />
        </mxCell>
        <mxCell id="rElacp6QVpxp85mC21H8-79" value="&lt;font color=&quot;#ea6b66&quot;&gt;(登入後)&lt;/font&gt;&lt;br&gt;顧客儀表板" style="rounded=0;whiteSpace=wrap;html=1;" parent="1" vertex="1">
          <mxGeometry x="210" y="575" width="100" height="60" as="geometry" />
        </mxCell>
        <mxCell id="rElacp6QVpxp85mC21H8-81" value="備註: 顧客尚未登入前，僅能瀏覽餐&lt;br&gt;廳及餐廳菜單，無法下單" style="text;html=1;align=center;verticalAlign=middle;resizable=0;points=[];autosize=1;strokeColor=none;fillColor=none;" parent="1" vertex="1">
          <mxGeometry x="140" y="520" width="210" height="40" as="geometry" />
        </mxCell>
        <mxCell id="rElacp6QVpxp85mC21H8-138" style="edgeStyle=orthogonalEdgeStyle;rounded=0;orthogonalLoop=1;jettySize=auto;html=1;" parent="1" source="rElacp6QVpxp85mC21H8-82" edge="1">
          <mxGeometry relative="1" as="geometry">
            <mxPoint x="580" y="567.5" as="targetPoint" />
          </mxGeometry>
        </mxCell>
        <mxCell id="rElacp6QVpxp85mC21H8-82" value="個人資料管理" style="rounded=0;whiteSpace=wrap;html=1;" parent="1" vertex="1">
          <mxGeometry x="380" y="550" width="120" height="35" as="geometry" />
        </mxCell>
        <mxCell id="rElacp6QVpxp85mC21H8-147" style="edgeStyle=orthogonalEdgeStyle;rounded=0;orthogonalLoop=1;jettySize=auto;html=1;entryX=0;entryY=0.5;entryDx=0;entryDy=0;" parent="1" source="rElacp6QVpxp85mC21H8-84" target="rElacp6QVpxp85mC21H8-146" edge="1">
          <mxGeometry relative="1" as="geometry">
            <Array as="points">
              <mxPoint x="580" y="640" />
            </Array>
          </mxGeometry>
        </mxCell>
        <mxCell id="rElacp6QVpxp85mC21H8-84" value="訂單追蹤" style="rounded=0;whiteSpace=wrap;html=1;" parent="1" vertex="1">
          <mxGeometry x="380" y="620" width="120" height="40" as="geometry" />
        </mxCell>
        <mxCell id="rElacp6QVpxp85mC21H8-151" style="edgeStyle=orthogonalEdgeStyle;rounded=0;orthogonalLoop=1;jettySize=auto;html=1;" parent="1" source="rElacp6QVpxp85mC21H8-85" edge="1">
          <mxGeometry relative="1" as="geometry">
            <mxPoint x="580" y="712.5" as="targetPoint" />
          </mxGeometry>
        </mxCell>
        <mxCell id="rElacp6QVpxp85mC21H8-85" value="歷史訂單紀錄" style="rounded=0;whiteSpace=wrap;html=1;" parent="1" vertex="1">
          <mxGeometry x="380" y="695" width="120" height="35" as="geometry" />
        </mxCell>
        <mxCell id="rElacp6QVpxp85mC21H8-159" style="edgeStyle=orthogonalEdgeStyle;rounded=0;orthogonalLoop=1;jettySize=auto;html=1;" parent="1" source="rElacp6QVpxp85mC21H8-86" edge="1">
          <mxGeometry relative="1" as="geometry">
            <mxPoint x="580" y="795" as="targetPoint" />
          </mxGeometry>
        </mxCell>
        <mxCell id="rElacp6QVpxp85mC21H8-86" value="喜愛餐廳/餐廳菜品" style="rounded=0;whiteSpace=wrap;html=1;" parent="1" vertex="1">
          <mxGeometry x="380" y="777.5" width="120" height="35" as="geometry" />
        </mxCell>
        <mxCell id="nnIp2R6RykmAXyKDNs2C-4" style="edgeStyle=orthogonalEdgeStyle;rounded=0;orthogonalLoop=1;jettySize=auto;html=1;entryX=0;entryY=0.5;entryDx=0;entryDy=0;" edge="1" parent="1" source="rElacp6QVpxp85mC21H8-87" target="rElacp6QVpxp85mC21H8-161">
          <mxGeometry relative="1" as="geometry" />
        </mxCell>
        <mxCell id="rElacp6QVpxp85mC21H8-87" value="客服與支援" style="rounded=0;whiteSpace=wrap;html=1;" parent="1" vertex="1">
          <mxGeometry x="380" y="835" width="120" height="35" as="geometry" />
        </mxCell>
        <mxCell id="rElacp6QVpxp85mC21H8-98" value="首頁為&lt;br&gt;餐廳選擇區" style="text;html=1;align=center;verticalAlign=middle;resizable=0;points=[];autosize=1;strokeColor=none;fillColor=none;" parent="1" vertex="1">
          <mxGeometry x="130" y="820" width="80" height="40" as="geometry" />
        </mxCell>
        <mxCell id="rElacp6QVpxp85mC21H8-100" value="登入按鈕" style="text;html=1;align=center;verticalAlign=middle;resizable=0;points=[];autosize=1;strokeColor=none;fillColor=none;" parent="1" vertex="1">
          <mxGeometry x="135" y="375" width="70" height="30" as="geometry" />
        </mxCell>
        <mxCell id="rElacp6QVpxp85mC21H8-141" value="可以編輯或更改&lt;br&gt;1.姓名 2.電郵 3.電話 4.地址" style="rounded=0;whiteSpace=wrap;html=1;" parent="1" vertex="1">
          <mxGeometry x="580" y="537.5" width="120" height="60" as="geometry" />
        </mxCell>
        <mxCell id="rElacp6QVpxp85mC21H8-146" value="訂單追蹤&lt;br&gt;1.能夠追查當前訂單處理進度&lt;br&gt;2.訂單詳細資料" style="rounded=0;whiteSpace=wrap;html=1;" parent="1" vertex="1">
          <mxGeometry x="580" y="607.5" width="120" height="65" as="geometry" />
        </mxCell>
        <mxCell id="3txlA2rgUesd4CDCn49P-2" style="edgeStyle=orthogonalEdgeStyle;rounded=0;orthogonalLoop=1;jettySize=auto;html=1;exitX=1;exitY=0.25;exitDx=0;exitDy=0;" parent="1" source="rElacp6QVpxp85mC21H8-152" edge="1">
          <mxGeometry relative="1" as="geometry">
            <mxPoint x="940" y="560" as="targetPoint" />
            <Array as="points">
              <mxPoint x="860" y="694" />
              <mxPoint x="860" y="560" />
            </Array>
          </mxGeometry>
        </mxCell>
        <mxCell id="rElacp6QVpxp85mC21H8-152" value="歷史訂單追蹤&lt;br&gt;每筆訂單完成能夠存放在該區(能看到每筆的詳細資料與價錢))&lt;br&gt;" style="rounded=0;whiteSpace=wrap;html=1;" parent="1" vertex="1">
          <mxGeometry x="580" y="675" width="120" height="75" as="geometry" />
        </mxCell>
        <mxCell id="rElacp6QVpxp85mC21H8-157" value="收藏清單&lt;br&gt;1.列出喜愛餐廳名稱&lt;br&gt;&lt;font color=&quot;#ea6b66&quot;&gt;2.點擊餐廳直接接菜單可直接點餐&lt;/font&gt;" style="rounded=0;whiteSpace=wrap;html=1;strokeColor=#EA6B66;" parent="1" vertex="1">
          <mxGeometry x="580" y="760" width="120" height="75" as="geometry" />
        </mxCell>
        <mxCell id="nnIp2R6RykmAXyKDNs2C-5" style="edgeStyle=orthogonalEdgeStyle;rounded=0;orthogonalLoop=1;jettySize=auto;html=1;entryX=-0.045;entryY=0.5;entryDx=0;entryDy=0;entryPerimeter=0;" edge="1" parent="1" source="rElacp6QVpxp85mC21H8-161" target="rElacp6QVpxp85mC21H8-164">
          <mxGeometry relative="1" as="geometry" />
        </mxCell>
        <mxCell id="rElacp6QVpxp85mC21H8-161" value="客服呼叫&lt;br&gt;輸入問題在留言板即可讓客服人員看到" style="rounded=0;whiteSpace=wrap;html=1;" parent="1" vertex="1">
          <mxGeometry x="580" y="850" width="120" height="60" as="geometry" />
        </mxCell>
        <mxCell id="rElacp6QVpxp85mC21H8-164" value="傳至客服人員端&lt;br&gt;&lt;font color=&quot;#ea6b66&quot;&gt;留言&lt;/font&gt;管理區" style="text;html=1;align=center;verticalAlign=middle;resizable=0;points=[];autosize=1;strokeColor=none;fillColor=none;" parent="1" vertex="1">
          <mxGeometry x="745" y="860" width="110" height="40" as="geometry" />
        </mxCell>
        <mxCell id="FL0FG-AgyobJ4NUiEC8_-2" value="" style="endArrow=classic;startArrow=classic;html=1;rounded=0;" parent="1" edge="1">
          <mxGeometry width="50" height="50" relative="1" as="geometry">
            <mxPoint x="700" y="620" as="sourcePoint" />
            <mxPoint x="790" y="620" as="targetPoint" />
          </mxGeometry>
        </mxCell>
        <mxCell id="FL0FG-AgyobJ4NUiEC8_-3" value="傳至餐廳端&lt;br&gt;餐廳端回傳進度" style="text;html=1;align=center;verticalAlign=middle;resizable=0;points=[];autosize=1;strokeColor=none;fillColor=none;" parent="1" vertex="1">
          <mxGeometry x="780" y="597.5" width="110" height="40" as="geometry" />
        </mxCell>
        <mxCell id="FL0FG-AgyobJ4NUiEC8_-11" value="餐廳端儀表板" style="rounded=0;whiteSpace=wrap;html=1;" parent="1" vertex="1">
          <mxGeometry x="230" y="930" width="120" height="60" as="geometry" />
        </mxCell>
        <mxCell id="FL0FG-AgyobJ4NUiEC8_-12" value="" style="endArrow=none;dashed=1;html=1;dashPattern=1 3;strokeWidth=2;rounded=0;" parent="1" edge="1">
          <mxGeometry width="50" height="50" relative="1" as="geometry">
            <mxPoint x="290" y="1016" as="sourcePoint" />
            <mxPoint x="340" y="1016" as="targetPoint" />
          </mxGeometry>
        </mxCell>
        <mxCell id="9ulV7JwIjiXNR_ygRMo--7" style="edgeStyle=orthogonalEdgeStyle;rounded=0;orthogonalLoop=1;jettySize=auto;html=1;" parent="1" source="9ulV7JwIjiXNR_ygRMo--8" edge="1">
          <mxGeometry relative="1" as="geometry">
            <mxPoint x="835" y="-290" as="targetPoint" />
          </mxGeometry>
        </mxCell>
        <mxCell id="9ulV7JwIjiXNR_ygRMo--8" value="註冊成為管理人員" style="rounded=0;whiteSpace=wrap;html=1;" parent="1" vertex="1">
          <mxGeometry x="380" y="-310" width="100" height="40" as="geometry" />
        </mxCell>
        <mxCell id="9ulV7JwIjiXNR_ygRMo--9" value="填寫商家資訊&lt;br&gt;包括(帳號、密碼、電話、Email)" style="text;html=1;align=center;verticalAlign=middle;resizable=0;points=[];autosize=1;strokeColor=none;fillColor=none;" parent="1" vertex="1">
          <mxGeometry x="550" y="-330" width="190" height="40" as="geometry" />
        </mxCell>
        <mxCell id="9ulV7JwIjiXNR_ygRMo--10" value="管理員註冊完成&lt;br&gt;(顯示管理人員儀表板)" style="rounded=0;whiteSpace=wrap;html=1;" parent="1" vertex="1">
          <mxGeometry x="835" y="-310" width="100" height="40" as="geometry" />
        </mxCell>
        <mxCell id="9ulV7JwIjiXNR_ygRMo--12" value="&lt;font style=&quot;font-size: 14px;&quot;&gt;Q:*不知道管理人員登入要不要做?&lt;/font&gt;" style="text;html=1;align=center;verticalAlign=middle;resizable=0;points=[];autosize=1;strokeColor=none;fillColor=none;" parent="1" vertex="1">
          <mxGeometry x="685" y="-360" width="230" height="30" as="geometry" />
        </mxCell>
        <mxCell id="gfIQbqnNzbjvfwokQ3qo-1" style="edgeStyle=orthogonalEdgeStyle;rounded=0;orthogonalLoop=1;jettySize=auto;html=1;entryX=0;entryY=0.25;entryDx=0;entryDy=0;" parent="1" source="gfIQbqnNzbjvfwokQ3qo-4" target="gfIQbqnNzbjvfwokQ3qo-5" edge="1">
          <mxGeometry relative="1" as="geometry">
            <mxPoint x="830" y="350" as="targetPoint" />
            <Array as="points">
              <mxPoint x="510" y="370" />
              <mxPoint x="510" y="330" />
              <mxPoint x="870" y="330" />
              <mxPoint x="870" y="370" />
            </Array>
          </mxGeometry>
        </mxCell>
        <mxCell id="gfIQbqnNzbjvfwokQ3qo-2" style="edgeStyle=orthogonalEdgeStyle;rounded=0;orthogonalLoop=1;jettySize=auto;html=1;entryX=0;entryY=0.5;entryDx=0;entryDy=0;" parent="1" source="gfIQbqnNzbjvfwokQ3qo-4" target="gfIQbqnNzbjvfwokQ3qo-8" edge="1">
          <mxGeometry relative="1" as="geometry">
            <Array as="points">
              <mxPoint x="510" y="370" />
              <mxPoint x="510" y="390" />
            </Array>
          </mxGeometry>
        </mxCell>
        <mxCell id="gfIQbqnNzbjvfwokQ3qo-4" value="管理人員登入頁面&lt;br&gt;(忘記密碼)" style="rounded=0;whiteSpace=wrap;html=1;" parent="1" vertex="1">
          <mxGeometry x="380" y="340" width="100" height="60" as="geometry" />
        </mxCell>
        <mxCell id="gfIQbqnNzbjvfwokQ3qo-5" value="管理員註冊完成&lt;br style=&quot;border-color: var(--border-color);&quot;&gt;(顯示管理員儀表板)" style="rounded=0;whiteSpace=wrap;html=1;" parent="1" vertex="1">
          <mxGeometry x="950" y="360" width="100" height="40" as="geometry" />
        </mxCell>
        <mxCell id="gfIQbqnNzbjvfwokQ3qo-6" value="輸入帳號、密碼" style="text;html=1;align=center;verticalAlign=middle;resizable=0;points=[];autosize=1;strokeColor=none;fillColor=none;" parent="1" vertex="1">
          <mxGeometry x="610" y="315" width="110" height="30" as="geometry" />
        </mxCell>
        <mxCell id="gfIQbqnNzbjvfwokQ3qo-7" style="edgeStyle=orthogonalEdgeStyle;rounded=0;orthogonalLoop=1;jettySize=auto;html=1;entryX=0;entryY=0.5;entryDx=0;entryDy=0;" parent="1" source="gfIQbqnNzbjvfwokQ3qo-8" target="gfIQbqnNzbjvfwokQ3qo-10" edge="1">
          <mxGeometry relative="1" as="geometry" />
        </mxCell>
        <mxCell id="gfIQbqnNzbjvfwokQ3qo-8" value="輸入管理人員Email" style="rounded=0;whiteSpace=wrap;html=1;" parent="1" vertex="1">
          <mxGeometry x="530" y="385" width="90" height="40" as="geometry" />
        </mxCell>
        <mxCell id="gfIQbqnNzbjvfwokQ3qo-9" style="edgeStyle=orthogonalEdgeStyle;rounded=0;orthogonalLoop=1;jettySize=auto;html=1;entryX=0;entryY=0.25;entryDx=0;entryDy=0;" parent="1" source="gfIQbqnNzbjvfwokQ3qo-10" target="gfIQbqnNzbjvfwokQ3qo-5" edge="1">
          <mxGeometry relative="1" as="geometry">
            <Array as="points">
              <mxPoint x="870" y="390" />
              <mxPoint x="870" y="370" />
            </Array>
          </mxGeometry>
        </mxCell>
        <mxCell id="gfIQbqnNzbjvfwokQ3qo-10" value="修改新密碼" style="rounded=0;whiteSpace=wrap;html=1;" parent="1" vertex="1">
          <mxGeometry x="740" y="385" width="100" height="40" as="geometry" />
        </mxCell>
        <mxCell id="gfIQbqnNzbjvfwokQ3qo-11" value="發送Email驗證信，&lt;br&gt;至Email確認後跳&lt;br&gt;至修改密碼頁面" style="text;html=1;align=center;verticalAlign=middle;resizable=0;points=[];autosize=1;strokeColor=none;fillColor=none;" parent="1" vertex="1">
          <mxGeometry x="610" y="350" width="130" height="60" as="geometry" />
        </mxCell>
        <mxCell id="gfIQbqnNzbjvfwokQ3qo-14" value="正常登入" style="text;html=1;align=center;verticalAlign=middle;resizable=0;points=[];autosize=1;strokeColor=none;fillColor=none;" parent="1" vertex="1">
          <mxGeometry x="500" y="325" width="70" height="30" as="geometry" />
        </mxCell>
        <mxCell id="gfIQbqnNzbjvfwokQ3qo-15" value="忘記密碼登入" style="text;html=1;align=center;verticalAlign=middle;resizable=0;points=[];autosize=1;strokeColor=none;fillColor=none;" parent="1" vertex="1">
          <mxGeometry x="495" y="365" width="100" height="30" as="geometry" />
        </mxCell>
        <mxCell id="AfNMLKMrNFEbt7Zwqo2S-1" value="&lt;font style=&quot;font-size: 18px;&quot;&gt;Q:*有確定要分開登入嗎?&lt;/font&gt;" style="text;html=1;align=center;verticalAlign=middle;resizable=0;points=[];autosize=1;strokeColor=none;fillColor=none;" parent="1" vertex="1">
          <mxGeometry x="120" y="-215" width="220" height="40" as="geometry" />
        </mxCell>
        <mxCell id="3txlA2rgUesd4CDCn49P-7" style="edgeStyle=orthogonalEdgeStyle;rounded=0;orthogonalLoop=1;jettySize=auto;html=1;" parent="1" source="3txlA2rgUesd4CDCn49P-6" edge="1">
          <mxGeometry relative="1" as="geometry">
            <mxPoint x="1120" y="568" as="targetPoint" />
          </mxGeometry>
        </mxCell>
        <mxCell id="3txlA2rgUesd4CDCn49P-6" value="每筆訂單旁有評價鍵，評價店家/外送員" style="rounded=0;whiteSpace=wrap;html=1;fillColor=#f8cecc;strokeColor=#b85450;" parent="1" vertex="1">
          <mxGeometry x="940" y="538" width="120" height="60" as="geometry" />
        </mxCell>
        <mxCell id="3txlA2rgUesd4CDCn49P-8" value="傳送至餐廳端&lt;br&gt;的評價管理" style="text;html=1;align=center;verticalAlign=middle;resizable=0;points=[];autosize=1;strokeColor=none;fillColor=none;" parent="1" vertex="1">
          <mxGeometry x="1100" y="545" width="100" height="40" as="geometry" />
        </mxCell>
      </root>
    </mxGraphModel>
  </diagram>
  <diagram id="stUPgs7TFsrxsirA-Ae8" name="餐廳端行為">
    <mxGraphModel dx="1260" dy="695" grid="1" gridSize="10" guides="1" tooltips="1" connect="1" arrows="1" fold="1" page="1" pageScale="1" pageWidth="827" pageHeight="1169" math="0" shadow="0">
      <root>
        <mxCell id="0" />
        <mxCell id="1" parent="0" />
        <mxCell id="XxpiIxBg998qGFkBwVK9-1" style="edgeStyle=orthogonalEdgeStyle;rounded=0;orthogonalLoop=1;jettySize=auto;html=1;entryX=0;entryY=0.5;entryDx=0;entryDy=0;" parent="1" source="IWaIXvWnGWIM2Dse-H0y-1" target="144iIyhSnr3L3Ov4lWga-1" edge="1">
          <mxGeometry relative="1" as="geometry" />
        </mxCell>
        <mxCell id="XxpiIxBg998qGFkBwVK9-2" style="edgeStyle=orthogonalEdgeStyle;rounded=0;orthogonalLoop=1;jettySize=auto;html=1;entryX=0;entryY=0.5;entryDx=0;entryDy=0;" parent="1" source="IWaIXvWnGWIM2Dse-H0y-1" target="144iIyhSnr3L3Ov4lWga-2" edge="1">
          <mxGeometry relative="1" as="geometry" />
        </mxCell>
        <mxCell id="XxpiIxBg998qGFkBwVK9-3" style="edgeStyle=orthogonalEdgeStyle;rounded=0;orthogonalLoop=1;jettySize=auto;html=1;entryX=0;entryY=0.5;entryDx=0;entryDy=0;" parent="1" source="IWaIXvWnGWIM2Dse-H0y-1" target="144iIyhSnr3L3Ov4lWga-4" edge="1">
          <mxGeometry relative="1" as="geometry" />
        </mxCell>
        <mxCell id="XxpiIxBg998qGFkBwVK9-4" style="edgeStyle=orthogonalEdgeStyle;rounded=0;orthogonalLoop=1;jettySize=auto;html=1;entryX=0;entryY=0.5;entryDx=0;entryDy=0;" parent="1" source="IWaIXvWnGWIM2Dse-H0y-1" target="144iIyhSnr3L3Ov4lWga-3" edge="1">
          <mxGeometry relative="1" as="geometry" />
        </mxCell>
        <mxCell id="LDffPjODRyEBL_srIcpn-8" style="edgeStyle=orthogonalEdgeStyle;rounded=0;orthogonalLoop=1;jettySize=auto;html=1;entryX=0;entryY=0.5;entryDx=0;entryDy=0;" parent="1" source="IWaIXvWnGWIM2Dse-H0y-1" target="wDowEmNFSSbuRcKV_tnx-1" edge="1">
          <mxGeometry relative="1" as="geometry" />
        </mxCell>
        <mxCell id="1ocbJfakI0nUgTyC1rq--1" style="edgeStyle=orthogonalEdgeStyle;rounded=0;orthogonalLoop=1;jettySize=auto;html=1;entryX=0;entryY=0.5;entryDx=0;entryDy=0;" parent="1" source="IWaIXvWnGWIM2Dse-H0y-1" target="1ocbJfakI0nUgTyC1rq--2" edge="1">
          <mxGeometry relative="1" as="geometry">
            <mxPoint x="260" y="1130" as="targetPoint" />
          </mxGeometry>
        </mxCell>
        <mxCell id="IWaIXvWnGWIM2Dse-H0y-1" value="餐廳端儀表板" style="rounded=0;whiteSpace=wrap;html=1;" parent="1" vertex="1">
          <mxGeometry x="110" y="850" width="120" height="60" as="geometry" />
        </mxCell>
        <mxCell id="XadAJzc3u82WJlrUr7JW-2" style="edgeStyle=orthogonalEdgeStyle;rounded=0;orthogonalLoop=1;jettySize=auto;html=1;entryX=0;entryY=0.5;entryDx=0;entryDy=0;" parent="1" source="144iIyhSnr3L3Ov4lWga-1" target="XadAJzc3u82WJlrUr7JW-1" edge="1">
          <mxGeometry relative="1" as="geometry" />
        </mxCell>
        <mxCell id="144iIyhSnr3L3Ov4lWga-1" value="餐廳資訊管理" style="rounded=0;whiteSpace=wrap;html=1;" parent="1" vertex="1">
          <mxGeometry x="294" y="702.5" width="120" height="35" as="geometry" />
        </mxCell>
        <mxCell id="xwoY0NL4wXyNVVBXKSRA-7" style="edgeStyle=orthogonalEdgeStyle;rounded=0;orthogonalLoop=1;jettySize=auto;html=1;exitX=1;exitY=0.5;exitDx=0;exitDy=0;" parent="1" source="144iIyhSnr3L3Ov4lWga-2" edge="1">
          <mxGeometry relative="1" as="geometry">
            <mxPoint x="500" y="810" as="targetPoint" />
          </mxGeometry>
        </mxCell>
        <mxCell id="144iIyhSnr3L3Ov4lWga-2" value="菜單管理" style="rounded=0;whiteSpace=wrap;html=1;" parent="1" vertex="1">
          <mxGeometry x="294" y="792.5" width="120" height="35" as="geometry" />
        </mxCell>
        <mxCell id="BsNX7MLZzm13p4fbXsT6-2" style="edgeStyle=orthogonalEdgeStyle;rounded=0;orthogonalLoop=1;jettySize=auto;html=1;entryX=0;entryY=0.5;entryDx=0;entryDy=0;" parent="1" source="144iIyhSnr3L3Ov4lWga-3" target="BE0lLcIRHoJCD8pj0YdQ-2" edge="1">
          <mxGeometry relative="1" as="geometry" />
        </mxCell>
        <mxCell id="iXNet03h0GMgViRTo7Qy-3" style="edgeStyle=orthogonalEdgeStyle;rounded=0;orthogonalLoop=1;jettySize=auto;html=1;entryX=0;entryY=0.5;entryDx=0;entryDy=0;" edge="1" parent="1" source="144iIyhSnr3L3Ov4lWga-3" target="BE0lLcIRHoJCD8pj0YdQ-11">
          <mxGeometry relative="1" as="geometry" />
        </mxCell>
        <mxCell id="144iIyhSnr3L3Ov4lWga-3" value="即時訂單管理" style="rounded=0;whiteSpace=wrap;html=1;" parent="1" vertex="1">
          <mxGeometry x="294" y="877.5" width="120" height="35" as="geometry" />
        </mxCell>
        <mxCell id="NqtsAYMujHBqusv9QjlR-7" style="edgeStyle=orthogonalEdgeStyle;rounded=0;orthogonalLoop=1;jettySize=auto;html=1;entryX=0;entryY=0.5;entryDx=0;entryDy=0;" parent="1" source="144iIyhSnr3L3Ov4lWga-4" target="BE0lLcIRHoJCD8pj0YdQ-3" edge="1">
          <mxGeometry relative="1" as="geometry" />
        </mxCell>
        <mxCell id="144iIyhSnr3L3Ov4lWga-4" value="歷史訂單管理" style="rounded=0;whiteSpace=wrap;html=1;" parent="1" vertex="1">
          <mxGeometry x="294" y="1045" width="120" height="35" as="geometry" />
        </mxCell>
        <mxCell id="LDffPjODRyEBL_srIcpn-1" style="edgeStyle=orthogonalEdgeStyle;rounded=0;orthogonalLoop=1;jettySize=auto;html=1;exitX=1;exitY=0.5;exitDx=0;exitDy=0;entryX=0;entryY=0.5;entryDx=0;entryDy=0;" parent="1" source="wDowEmNFSSbuRcKV_tnx-1" target="8oJH4K1XRWeCKHesJrwr-3" edge="1">
          <mxGeometry relative="1" as="geometry" />
        </mxCell>
        <mxCell id="wDowEmNFSSbuRcKV_tnx-1" value="客服與支援" style="rounded=0;whiteSpace=wrap;html=1;" parent="1" vertex="1">
          <mxGeometry x="294" y="1172.5" width="120" height="35" as="geometry" />
        </mxCell>
        <mxCell id="LDffPjODRyEBL_srIcpn-2" style="edgeStyle=orthogonalEdgeStyle;rounded=0;orthogonalLoop=1;jettySize=auto;html=1;" parent="1" source="8oJH4K1XRWeCKHesJrwr-3" edge="1">
          <mxGeometry relative="1" as="geometry">
            <mxPoint x="790" y="1190" as="targetPoint" />
          </mxGeometry>
        </mxCell>
        <mxCell id="8oJH4K1XRWeCKHesJrwr-3" value="客服呼叫&lt;br&gt;輸入問題在留言板即可讓客服人員看到" style="rounded=0;whiteSpace=wrap;html=1;" parent="1" vertex="1">
          <mxGeometry x="590" y="1160" width="120" height="60" as="geometry" />
        </mxCell>
        <mxCell id="8oJH4K1XRWeCKHesJrwr-4" value="傳至客服人員端" style="text;html=1;align=center;verticalAlign=middle;resizable=0;points=[];autosize=1;strokeColor=none;fillColor=none;" parent="1" vertex="1">
          <mxGeometry x="790" y="1175" width="110" height="30" as="geometry" />
        </mxCell>
        <mxCell id="XIe3ibdd72_IIWmaKGm9-1" style="edgeStyle=orthogonalEdgeStyle;rounded=0;orthogonalLoop=1;jettySize=auto;html=1;" parent="1" source="1ocbJfakI0nUgTyC1rq--2" edge="1">
          <mxGeometry relative="1" as="geometry">
            <mxPoint x="490" y="1372.5" as="targetPoint" />
          </mxGeometry>
        </mxCell>
        <mxCell id="1ocbJfakI0nUgTyC1rq--2" value="評價管理" style="rounded=0;whiteSpace=wrap;html=1;" parent="1" vertex="1">
          <mxGeometry x="294" y="1350" width="120" height="45" as="geometry" />
        </mxCell>
        <mxCell id="XadAJzc3u82WJlrUr7JW-1" value="可以編輯或更改&lt;br&gt;1.公司名稱 2.公司電郵 3.公司電話 &lt;font color=&quot;#ea6b66&quot;&gt;&lt;strike&gt;4.公司地址&lt;/strike&gt;&lt;/font&gt;" style="rounded=0;whiteSpace=wrap;html=1;" parent="1" vertex="1">
          <mxGeometry x="500" y="690" width="120" height="60" as="geometry" />
        </mxCell>
        <mxCell id="xwoY0NL4wXyNVVBXKSRA-2" value="按下新增菜品按鈕&lt;br&gt;，開始編輯菜品" style="text;html=1;align=center;verticalAlign=middle;resizable=0;points=[];autosize=1;strokeColor=none;fillColor=none;" parent="1" vertex="1">
          <mxGeometry x="600" y="765" width="120" height="40" as="geometry" />
        </mxCell>
        <mxCell id="xwoY0NL4wXyNVVBXKSRA-10" style="edgeStyle=orthogonalEdgeStyle;rounded=0;orthogonalLoop=1;jettySize=auto;html=1;exitX=1;exitY=0.5;exitDx=0;exitDy=0;" parent="1" source="xwoY0NL4wXyNVVBXKSRA-3" edge="1">
          <mxGeometry relative="1" as="geometry">
            <mxPoint x="900" y="810" as="targetPoint" />
          </mxGeometry>
        </mxCell>
        <mxCell id="xwoY0NL4wXyNVVBXKSRA-3" value="菜品編輯彈射視窗&lt;br&gt;上傳項目:&lt;br&gt;1.菜品圖片&lt;br&gt;2.菜品名稱&lt;br&gt;3.種類&lt;br&gt;4.菜品價格&lt;br&gt;5.商品簡介" style="rounded=0;whiteSpace=wrap;html=1;" parent="1" vertex="1">
          <mxGeometry x="710" y="757.5" width="140" height="105" as="geometry" />
        </mxCell>
        <mxCell id="xwoY0NL4wXyNVVBXKSRA-8" value="菜單管理總列&lt;br&gt;(可以&lt;font color=&quot;#ea6b66&quot;&gt;新刪修/凍結&lt;/font&gt;)" style="rounded=0;whiteSpace=wrap;html=1;" parent="1" vertex="1">
          <mxGeometry x="500" y="792.5" width="120" height="35" as="geometry" />
        </mxCell>
        <mxCell id="xwoY0NL4wXyNVVBXKSRA-9" value="" style="endArrow=classic;startArrow=classic;html=1;rounded=0;entryX=0;entryY=0.5;entryDx=0;entryDy=0;" parent="1" target="xwoY0NL4wXyNVVBXKSRA-3" edge="1">
          <mxGeometry width="50" height="50" relative="1" as="geometry">
            <mxPoint x="620" y="810" as="sourcePoint" />
            <mxPoint x="670" y="760" as="targetPoint" />
          </mxGeometry>
        </mxCell>
        <mxCell id="xwoY0NL4wXyNVVBXKSRA-12" value="&lt;span style=&quot;color: rgb(0, 0, 0); font-family: Helvetica; font-size: 12px; font-style: normal; font-variant-ligatures: normal; font-variant-caps: normal; font-weight: 400; letter-spacing: normal; orphans: 2; text-align: center; text-indent: 0px; text-transform: none; widows: 2; word-spacing: 0px; -webkit-text-stroke-width: 0px; background-color: rgb(251, 251, 251); text-decoration-thickness: initial; text-decoration-style: initial; text-decoration-color: initial; float: none; display: inline !important;&quot;&gt;按下彈射視窗確認鍵，即刻顯示至顧客端菜品頁面&lt;/span&gt;" style="text;whiteSpace=wrap;html=1;" parent="1" vertex="1">
          <mxGeometry x="900" y="796.25" width="150" height="27.5" as="geometry" />
        </mxCell>
        <mxCell id="BE0lLcIRHoJCD8pj0YdQ-10" style="edgeStyle=orthogonalEdgeStyle;rounded=0;orthogonalLoop=1;jettySize=auto;html=1;entryX=0;entryY=0.5;entryDx=0;entryDy=0;" parent="1" source="BE0lLcIRHoJCD8pj0YdQ-2" target="BE0lLcIRHoJCD8pj0YdQ-9" edge="1">
          <mxGeometry relative="1" as="geometry" />
        </mxCell>
        <mxCell id="BE0lLcIRHoJCD8pj0YdQ-2" value="訂單追蹤&lt;br&gt;1.能夠設定訂單進度&lt;br&gt;&lt;font color=&quot;#ea6b66&quot;&gt;(備餐完成/外送員已取餐)&lt;/font&gt;&lt;br&gt;2.訂單詳細資料(每項菜品價錢、總金額)、訂單編號)" style="rounded=0;whiteSpace=wrap;html=1;" parent="1" vertex="1">
          <mxGeometry x="525" y="840" width="140" height="110" as="geometry" />
        </mxCell>
        <mxCell id="BE0lLcIRHoJCD8pj0YdQ-3" value="歷史訂單追蹤&lt;br&gt;每筆訂單完成能夠存放在該區(每項菜品價錢、總金額)、訂單編號)" style="rounded=0;whiteSpace=wrap;html=1;" parent="1" vertex="1">
          <mxGeometry x="490" y="1025" width="120" height="75" as="geometry" />
        </mxCell>
        <mxCell id="BE0lLcIRHoJCD8pj0YdQ-7" value="&lt;font color=&quot;#ea6b66&quot;&gt;接受/拒絕訂單&lt;/font&gt;" style="text;html=1;align=center;verticalAlign=middle;resizable=0;points=[];autosize=1;strokeColor=none;fillColor=none;" parent="1" vertex="1">
          <mxGeometry x="304" y="850" width="100" height="30" as="geometry" />
        </mxCell>
        <mxCell id="NqtsAYMujHBqusv9QjlR-4" style="edgeStyle=orthogonalEdgeStyle;rounded=0;orthogonalLoop=1;jettySize=auto;html=1;entryX=1;entryY=0.5;entryDx=0;entryDy=0;" parent="1" source="NqtsAYMujHBqusv9QjlR-2" target="BE0lLcIRHoJCD8pj0YdQ-3" edge="1">
          <mxGeometry relative="1" as="geometry">
            <Array as="points" />
          </mxGeometry>
        </mxCell>
        <mxCell id="BE0lLcIRHoJCD8pj0YdQ-9" value="餐點完成後，按下訂單完成鍵(即刻傳至顧客端)" style="rounded=0;whiteSpace=wrap;html=1;" parent="1" vertex="1">
          <mxGeometry x="780" y="871.88" width="120" height="46.25" as="geometry" />
        </mxCell>
        <mxCell id="BE0lLcIRHoJCD8pj0YdQ-19" style="edgeStyle=orthogonalEdgeStyle;rounded=0;orthogonalLoop=1;jettySize=auto;html=1;entryX=-0.027;entryY=0.589;entryDx=0;entryDy=0;entryPerimeter=0;" parent="1" source="BE0lLcIRHoJCD8pj0YdQ-11" target="BE0lLcIRHoJCD8pj0YdQ-18" edge="1">
          <mxGeometry relative="1" as="geometry">
            <Array as="points">
              <mxPoint x="750" y="980" />
              <mxPoint x="750" y="980" />
            </Array>
          </mxGeometry>
        </mxCell>
        <mxCell id="BE0lLcIRHoJCD8pj0YdQ-11" value="訂單中止" style="rounded=0;whiteSpace=wrap;html=1;" parent="1" vertex="1">
          <mxGeometry x="525" y="957.5" width="80" height="35" as="geometry" />
        </mxCell>
        <mxCell id="BE0lLcIRHoJCD8pj0YdQ-15" value="Y&lt;br&gt;&lt;br&gt;&lt;br&gt;&lt;br&gt;&lt;br&gt;&lt;br&gt;N" style="text;html=1;align=center;verticalAlign=middle;resizable=0;points=[];autosize=1;strokeColor=none;fillColor=none;" parent="1" vertex="1">
          <mxGeometry x="480" y="871.88" width="30" height="110" as="geometry" />
        </mxCell>
        <mxCell id="BE0lLcIRHoJCD8pj0YdQ-18" value="&lt;font color=&quot;#ea6b66&quot;&gt;回傳顧客&lt;/font&gt;" style="text;html=1;align=center;verticalAlign=middle;resizable=0;points=[];autosize=1;strokeColor=none;fillColor=none;" parent="1" vertex="1">
          <mxGeometry x="795" y="962.5" width="70" height="30" as="geometry" />
        </mxCell>
        <mxCell id="NqtsAYMujHBqusv9QjlR-6" value="" style="edgeStyle=orthogonalEdgeStyle;rounded=0;orthogonalLoop=1;jettySize=auto;html=1;entryX=1;entryY=0.5;entryDx=0;entryDy=0;" parent="1" source="BE0lLcIRHoJCD8pj0YdQ-9" target="NqtsAYMujHBqusv9QjlR-2" edge="1">
          <mxGeometry relative="1" as="geometry">
            <mxPoint x="890" y="895" as="sourcePoint" />
            <mxPoint x="610" y="1063" as="targetPoint" />
            <Array as="points">
              <mxPoint x="1010" y="895" />
              <mxPoint x="1010" y="1063" />
            </Array>
          </mxGeometry>
        </mxCell>
        <mxCell id="NqtsAYMujHBqusv9QjlR-2" value="按下訂單完成鍵，歷史訂單管理區即生成&lt;br&gt;該筆訂單記錄" style="text;html=1;align=center;verticalAlign=middle;resizable=0;points=[];autosize=1;strokeColor=none;fillColor=none;" parent="1" vertex="1">
          <mxGeometry x="700" y="1042.5" width="240" height="40" as="geometry" />
        </mxCell>
        <mxCell id="XIe3ibdd72_IIWmaKGm9-2" value="顯示每筆訂單顧客的評價(旁有刪除鍵)" style="whiteSpace=wrap;html=1;" parent="1" vertex="1">
          <mxGeometry x="490" y="1342.5" width="120" height="60" as="geometry" />
        </mxCell>
      </root>
    </mxGraphModel>
  </diagram>
  <diagram id="Q4c3XTo-JmhuV3smSZij" name="管理人員端">
    <mxGraphModel dx="1260" dy="695" grid="1" gridSize="10" guides="1" tooltips="1" connect="1" arrows="1" fold="1" page="1" pageScale="1" pageWidth="827" pageHeight="1169" math="0" shadow="0">
      <root>
        <mxCell id="0" />
        <mxCell id="1" parent="0" />
        <mxCell id="YeZ1FAm0CcNwvFlwWfHR-2" value="" style="edgeStyle=orthogonalEdgeStyle;rounded=0;orthogonalLoop=1;jettySize=auto;html=1;" parent="1" source="j_FoABQiUM2owAg7gxko-1" target="YeZ1FAm0CcNwvFlwWfHR-1" edge="1">
          <mxGeometry relative="1" as="geometry">
            <Array as="points">
              <mxPoint x="290" y="880" />
              <mxPoint x="290" y="720" />
            </Array>
          </mxGeometry>
        </mxCell>
        <mxCell id="4ShjVAcob2KD6cyqNUFL-2" value="" style="edgeStyle=orthogonalEdgeStyle;rounded=0;orthogonalLoop=1;jettySize=auto;html=1;" parent="1" source="j_FoABQiUM2owAg7gxko-1" target="4ShjVAcob2KD6cyqNUFL-1" edge="1">
          <mxGeometry relative="1" as="geometry" />
        </mxCell>
        <mxCell id="4ShjVAcob2KD6cyqNUFL-4" value="" style="edgeStyle=orthogonalEdgeStyle;rounded=0;orthogonalLoop=1;jettySize=auto;html=1;" parent="1" source="j_FoABQiUM2owAg7gxko-1" target="4ShjVAcob2KD6cyqNUFL-1" edge="1">
          <mxGeometry relative="1" as="geometry" />
        </mxCell>
        <mxCell id="rD7XYPfsdQL-XxTZLaZH-1" style="edgeStyle=orthogonalEdgeStyle;rounded=0;orthogonalLoop=1;jettySize=auto;html=1;entryX=0;entryY=0.5;entryDx=0;entryDy=0;" parent="1" source="j_FoABQiUM2owAg7gxko-1" target="4ShjVAcob2KD6cyqNUFL-5" edge="1">
          <mxGeometry relative="1" as="geometry">
            <Array as="points">
              <mxPoint x="290" y="880" />
              <mxPoint x="290" y="1040" />
            </Array>
          </mxGeometry>
        </mxCell>
        <mxCell id="ezRyTZf-9kkR95bCHO5g-2" style="edgeStyle=orthogonalEdgeStyle;rounded=0;orthogonalLoop=1;jettySize=auto;html=1;entryX=0;entryY=0.5;entryDx=0;entryDy=0;" parent="1" source="j_FoABQiUM2owAg7gxko-1" target="ezRyTZf-9kkR95bCHO5g-1" edge="1">
          <mxGeometry relative="1" as="geometry">
            <Array as="points">
              <mxPoint x="290" y="880" />
              <mxPoint x="290" y="1180" />
            </Array>
          </mxGeometry>
        </mxCell>
        <mxCell id="j_FoABQiUM2owAg7gxko-1" value="管理人員端儀表板" style="rounded=0;whiteSpace=wrap;html=1;" parent="1" vertex="1">
          <mxGeometry x="110" y="850" width="120" height="60" as="geometry" />
        </mxCell>
        <mxCell id="ezRyTZf-9kkR95bCHO5g-4" value="" style="edgeStyle=orthogonalEdgeStyle;rounded=0;orthogonalLoop=1;jettySize=auto;html=1;" parent="1" source="YeZ1FAm0CcNwvFlwWfHR-1" target="ezRyTZf-9kkR95bCHO5g-3" edge="1">
          <mxGeometry relative="1" as="geometry" />
        </mxCell>
        <mxCell id="ezRyTZf-9kkR95bCHO5g-6" style="edgeStyle=orthogonalEdgeStyle;rounded=0;orthogonalLoop=1;jettySize=auto;html=1;entryX=0;entryY=0.5;entryDx=0;entryDy=0;" parent="1" source="YeZ1FAm0CcNwvFlwWfHR-1" target="ezRyTZf-9kkR95bCHO5g-5" edge="1">
          <mxGeometry relative="1" as="geometry" />
        </mxCell>
        <mxCell id="YeZ1FAm0CcNwvFlwWfHR-1" value="用戶管理" style="rounded=0;whiteSpace=wrap;html=1;" parent="1" vertex="1">
          <mxGeometry x="340" y="690" width="120" height="60" as="geometry" />
        </mxCell>
        <mxCell id="ezRyTZf-9kkR95bCHO5g-9" value="" style="edgeStyle=orthogonalEdgeStyle;rounded=0;orthogonalLoop=1;jettySize=auto;html=1;" parent="1" source="4ShjVAcob2KD6cyqNUFL-1" target="ezRyTZf-9kkR95bCHO5g-8" edge="1">
          <mxGeometry relative="1" as="geometry" />
        </mxCell>
        <mxCell id="WTVTixqgLNcO-W_6c3MP-2" style="edgeStyle=orthogonalEdgeStyle;rounded=0;orthogonalLoop=1;jettySize=auto;html=1;entryX=0;entryY=0.5;entryDx=0;entryDy=0;" parent="1" source="4ShjVAcob2KD6cyqNUFL-1" target="WTVTixqgLNcO-W_6c3MP-1" edge="1">
          <mxGeometry relative="1" as="geometry" />
        </mxCell>
        <mxCell id="4ShjVAcob2KD6cyqNUFL-1" value="客服管理" style="whiteSpace=wrap;html=1;rounded=0;" parent="1" vertex="1">
          <mxGeometry x="340" y="850" width="120" height="60" as="geometry" />
        </mxCell>
        <mxCell id="4ShjVAcob2KD6cyqNUFL-5" value="訂單管理&lt;br&gt;(管啥?&lt;font color=&quot;#ea6b66&quot;&gt;可傳回商家訂單即可&lt;br&gt;傳回內容再訂&lt;/font&gt;)" style="whiteSpace=wrap;html=1;rounded=0;" parent="1" vertex="1">
          <mxGeometry x="340" y="1010" width="120" height="60" as="geometry" />
        </mxCell>
        <mxCell id="KvzFUd31FMtMbsmX15M8-2" style="edgeStyle=orthogonalEdgeStyle;rounded=0;orthogonalLoop=1;jettySize=auto;html=1;entryX=0;entryY=0.5;entryDx=0;entryDy=0;" parent="1" source="ezRyTZf-9kkR95bCHO5g-1" target="KvzFUd31FMtMbsmX15M8-1" edge="1">
          <mxGeometry relative="1" as="geometry" />
        </mxCell>
        <mxCell id="o8TfxCj4MiuNSBDRbVwC-2" style="edgeStyle=orthogonalEdgeStyle;rounded=0;orthogonalLoop=1;jettySize=auto;html=1;entryX=0;entryY=0.5;entryDx=0;entryDy=0;" parent="1" source="ezRyTZf-9kkR95bCHO5g-1" target="KvzFUd31FMtMbsmX15M8-3" edge="1">
          <mxGeometry relative="1" as="geometry" />
        </mxCell>
        <mxCell id="ezRyTZf-9kkR95bCHO5g-1" value="客戶評價管理" style="whiteSpace=wrap;html=1;rounded=0;" parent="1" vertex="1">
          <mxGeometry x="340" y="1150" width="120" height="60" as="geometry" />
        </mxCell>
        <mxCell id="ezRyTZf-9kkR95bCHO5g-3" value="顧客帳號區&lt;br&gt;(可做修改/刪除)&lt;br&gt;: 顯示顧客ID、帳號、Email" style="whiteSpace=wrap;html=1;rounded=0;" parent="1" vertex="1">
          <mxGeometry x="540" y="640" width="120" height="60" as="geometry" />
        </mxCell>
        <mxCell id="ezRyTZf-9kkR95bCHO5g-5" value="賣家帳號區&lt;br&gt;(可做修改/刪除)&lt;br&gt;: 顯示賣家ID、帳號、Email" style="whiteSpace=wrap;html=1;rounded=0;" parent="1" vertex="1">
          <mxGeometry x="540" y="730" width="120" height="60" as="geometry" />
        </mxCell>
        <mxCell id="ezRyTZf-9kkR95bCHO5g-7" value="&lt;font style=&quot;font-size: 14px;&quot;&gt;備註:(模擬)做動作之前，一定要利用&lt;br&gt;某種手段通知顧客/賣家，才能做修改&lt;br&gt;及刪除&lt;/font&gt;" style="text;html=1;align=center;verticalAlign=middle;resizable=0;points=[];autosize=1;strokeColor=none;fillColor=none;" parent="1" vertex="1">
          <mxGeometry x="275" y="620" width="250" height="60" as="geometry" />
        </mxCell>
        <mxCell id="ezRyTZf-9kkR95bCHO5g-8" value="顯示顧客問題&lt;br&gt;(&lt;font color=&quot;#ea6b66&quot;&gt;留言板&lt;/font&gt;方式&lt;font color=&quot;#ea6b66&quot;&gt;溝通&lt;/font&gt;)" style="whiteSpace=wrap;html=1;rounded=0;" parent="1" vertex="1">
          <mxGeometry x="540" y="820" width="120" height="60" as="geometry" />
        </mxCell>
        <mxCell id="KvzFUd31FMtMbsmX15M8-1" value="顧客評價區:&lt;br&gt;可查看每筆留言&lt;br&gt;(旁有刪除鍵)" style="whiteSpace=wrap;html=1;" parent="1" vertex="1">
          <mxGeometry x="540" y="1090" width="120" height="60" as="geometry" />
        </mxCell>
        <mxCell id="KvzFUd31FMtMbsmX15M8-3" value="賣家評價區:&lt;br style=&quot;border-color: var(--border-color);&quot;&gt;可查看每筆留言&lt;br&gt;(旁有刪除鍵)" style="whiteSpace=wrap;html=1;" parent="1" vertex="1">
          <mxGeometry x="540" y="1200" width="120" height="60" as="geometry" />
        </mxCell>
        <mxCell id="nqlHp4S7nEyN4roh3uML-1" value="&lt;font style=&quot;font-size: 18px;&quot;&gt;Q:有些比較難的系統，如數據管理、廣告促銷...等，&lt;br&gt;太難的我就沒加了，可以討論後加上&lt;/font&gt;" style="text;html=1;align=center;verticalAlign=middle;resizable=0;points=[];autosize=1;strokeColor=none;fillColor=none;" parent="1" vertex="1">
          <mxGeometry x="50" y="1230" width="440" height="60" as="geometry" />
        </mxCell>
        <mxCell id="NGzC8MW0Bcq98KaIY7Ba-1" value="" style="endArrow=none;dashed=1;html=1;dashPattern=1 3;strokeWidth=2;rounded=0;" parent="1" edge="1">
          <mxGeometry width="50" height="50" relative="1" as="geometry">
            <mxPoint x="660" y="1240" as="sourcePoint" />
            <mxPoint x="740" y="1240" as="targetPoint" />
          </mxGeometry>
        </mxCell>
        <mxCell id="NGzC8MW0Bcq98KaIY7Ba-2" value="" style="endArrow=none;dashed=1;html=1;dashPattern=1 3;strokeWidth=2;rounded=0;" parent="1" edge="1">
          <mxGeometry width="50" height="50" relative="1" as="geometry">
            <mxPoint x="660" y="1119.5" as="sourcePoint" />
            <mxPoint x="740" y="1119.5" as="targetPoint" />
          </mxGeometry>
        </mxCell>
        <mxCell id="NGzC8MW0Bcq98KaIY7Ba-3" value="顧客return" style="text;html=1;align=center;verticalAlign=middle;resizable=0;points=[];autosize=1;strokeColor=none;fillColor=none;" parent="1" vertex="1">
          <mxGeometry x="720" y="1105" width="80" height="30" as="geometry" />
        </mxCell>
        <mxCell id="NGzC8MW0Bcq98KaIY7Ba-4" value="賣家return" style="text;html=1;align=center;verticalAlign=middle;resizable=0;points=[];autosize=1;strokeColor=none;fillColor=none;" parent="1" vertex="1">
          <mxGeometry x="720" y="1230" width="80" height="30" as="geometry" />
        </mxCell>
        <mxCell id="WTVTixqgLNcO-W_6c3MP-1" value="顯示賣家問題&lt;br&gt;(&lt;font style=&quot;border-color: var(--border-color);&quot; color=&quot;#ea6b66&quot;&gt;留言板&lt;/font&gt;方式&lt;font style=&quot;border-color: var(--border-color);&quot; color=&quot;#ea6b66&quot;&gt;溝通&lt;/font&gt;)" style="whiteSpace=wrap;html=1;rounded=0;" parent="1" vertex="1">
          <mxGeometry x="540" y="900" width="120" height="60" as="geometry" />
        </mxCell>
      </root>
    </mxGraphModel>
  </diagram>
</mxfile>
